<svg xmlns="http://www.w3.org/2000/svg" width="640" height="120" viewBox="0 0 640 120" role="img" aria-label="Step into Crypto logo primary">
  <rect width="640" height="120" fill="none"/>
  <text x="12" y="78" font-family="Syne, 'Noto Sans KR', sans-serif" font-size="68" font-weight="800" fill="#f0f8ff">Step into</text>
  <text x="350" y="78" font-family="Syne, 'Noto Sans KR', sans-serif" font-size="68" font-weight="800" fill="#00d4ff">Crypto</text>
  <g transform="translate(575 36)">
    <path fill="#00d4ff" d="M25.4 1.5C24.3.5 22.8 0 21.3 0H5.7C4.2 0 2.8.5 1.7 1.5.6 2.4 0 3.8 0 5.3V20c0 1.5.6 2.9 1.7 3.8 1.1 1 2.6 1.5 4 1.5h15.6c1.5 0 3-.5 4-1.5 1.1-1 1.7-2.4 1.7-3.8V5.3c0-1.5-.6-2.9-1.6-3.8zM16.2 8.5l-4.3 3.2L7.6 8.5 12 5.2l4.2 3.3zm-8.6 8.5v-6.1l4.3 3.2v6.2L7.6 17zm8.6 0-4.3 3.3v-6.2l4.3-3.2V17z"/>
  </g>
</svg>
